<?xml version="1.0" encoding="UTF-8"?>
<svg version="1.1" xmlns="http://www.w3.org/2000/svg" width="242" height="228">
<path d="M0 0 C9.01933958 1.12741745 9.01933958 1.12741745 12.91210938 1.92041016 C14.22387146 2.18671738 14.22387146 2.18671738 15.56213379 2.45840454 C19.50729125 3.28194989 23.44999237 4.11616359 27.39013672 4.96337891 C29.46121797 5.4039999 31.53450691 5.83437029 33.60986328 6.25439453 C36.63100923 6.86666607 39.64351413 7.51181264 42.65625 8.1640625 C43.57418335 8.34353424 44.4921167 8.52300598 45.43786621 8.70791626 C52.27028244 10.24276291 56.12306934 13.07518945 61 18 C62.3780954 19.30506065 63.75710661 20.60915481 65.13696289 21.91235352 C68.98415092 25.63637071 72.80220433 29.38992909 76.61206055 33.15209961 C78.25478681 34.76798447 79.90463449 36.37665934 81.5612793 37.97827148 C83.96530525 40.30359351 86.34591436 42.65074374 88.72265625 45.00390625 C89.46830338 45.71656143 90.2139505 46.42921661 90.98219299 47.16346741 C95.99455443 52.19587126 95.99455443 52.19587126 96.02270508 56.3527832 C95.03512878 58.90907106 93.97638889 61.24164141 92.625 63.625 C85.9078366 76.72833614 84.67561171 92.73148639 88.83203125 106.8984375 C95.64416706 124.98818945 105.62320266 137.61118139 123.4765625 145.93359375 C137.24738487 151.75315181 154.11220033 152.4086482 168.21875 147.19140625 C169.1365625 146.79824219 170.054375 146.40507812 171 146 C171.8765625 145.63777344 172.753125 145.27554688 173.65625 144.90234375 C189.14144734 137.85275545 199.0249498 125.41819091 205.30908203 109.9519043 C210.2625762 95.95784569 209.53703422 79.66624689 204 66 C202.71650204 63.56419034 201.39581893 61.24600751 199.85546875 58.96484375 C198.66642817 56.233851 199.15021802 54.83278125 200 52 C201.67407227 49.87182617 201.67407227 49.87182617 203.81640625 47.79296875 C204.96206055 46.66665039 204.96206055 46.66665039 206.13085938 45.51757812 C206.93330078 44.74865234 207.73574219 43.97972656 208.5625 43.1875 C209.77196289 42.00510742 209.77196289 42.00510742 211.00585938 40.79882812 C212.99520169 38.85657084 214.99327271 36.92426339 217 35 C222.53743952 36.84581317 225.21865463 43.7650718 227.88964844 48.74414062 C238.15551685 69.60091814 240.39623636 94.74525152 233.38183594 116.95751953 C228.37799706 131.52109426 220.8045644 143.18042926 210 154 C209.195625 154.81597656 208.39125 155.63195312 207.5625 156.47265625 C190.61756531 172.72084198 167.85596847 179.4869771 144.79272461 179.36010742 C136.12240832 179.15489752 127.46582125 178.10699236 119.32226562 174.96777344 C115.41276644 173.82893931 111.75050922 173.67618713 107.71484375 173.6640625 C106.93613419 173.6574057 106.15742462 173.6507489 105.3551178 173.64389038 C103.71715645 173.63381176 102.07915443 173.62907187 100.44116211 173.62939453 C97.94120897 173.62500651 95.44300251 173.58859882 92.94335938 173.55078125 C91.34636016 173.5449149 89.74935263 173.54094429 88.15234375 173.5390625 C87.40951645 173.52469147 86.66668915 173.51032043 85.90135193 173.49551392 C80.97607115 173.538747 78.49498189 174.53888339 75 178 C75.10792821 180.9042893 75.10792821 180.9042893 76 184 C79.55537061 186.70579611 82.19442627 187.37770897 86.61250305 187.39872742 C87.73004471 187.41126556 88.84758636 187.42380371 89.99899292 187.4367218 C91.21531403 187.43528671 92.43163513 187.43385162 93.68481445 187.43237305 C95.61711662 187.44766052 95.61711662 187.44766052 97.5884552 187.46325684 C101.11286264 187.49080556 104.63710874 187.50010838 108.16160989 187.50611091 C111.84789168 187.51550018 115.53405322 187.54170399 119.22026062 187.56611633 C126.19701579 187.60976988 133.1737476 187.63832383 140.15059775 187.66143972 C148.09500903 187.68849756 156.03929927 187.73240868 163.9836241 187.77772844 C180.32235697 187.87055831 196.66110721 187.94164878 213 188 C213 191.63 213 195.26 213 199 C194.75410268 199.11584947 176.50833198 199.2050263 158.262146 199.25906086 C149.78970808 199.28481931 141.31750318 199.31992443 132.84521484 199.37719727 C125.45892649 199.42710483 118.07280693 199.45930817 110.68635464 199.47044247 C106.77684566 199.47694889 102.86781949 199.49219072 98.95846558 199.52865028 C95.27461988 199.56272658 91.59145333 199.57302992 87.90746498 199.56553841 C85.91935666 199.56755808 83.9313214 199.59439225 81.94340515 199.62210083 C74.79752463 199.58108177 69.3629067 199.05875786 64 194 C59.92593861 188.70653844 59.37257064 183.42203391 59.61328125 176.83984375 C60.34123113 171.49419162 62.50908387 168.41445889 66.4375 164.6875 C71.82012775 161.1428427 76.52556309 160.62795304 82.8125 160.375 C83.60076172 160.33632812 84.38902344 160.29765625 85.20117188 160.2578125 C87.1337538 160.16411156 89.06684376 160.08099221 91 160 C90.09378906 159.15179688 89.18757813 158.30359375 88.25390625 157.4296875 C70.41101623 140.3915923 59.00671231 119.68114555 57.83984375 94.55078125 C57.61521839 84.57936875 57.6169109 72.40377175 61.83813477 63.16577148 C62.06234919 60.16576224 60.68621859 58.75695531 58.840271 56.50794983 C58.34641907 55.9445842 57.85256714 55.38121857 57.34375 54.80078125 C56.82621155 54.20829086 56.3086731 53.61580048 55.77545166 53.00535583 C54.04713699 51.07716147 52.28344623 49.18978057 50.5 47.3125 C49.59610535 46.35482727 49.59610535 46.35482727 48.6739502 45.37780762 C33.51531826 29.75367048 15.9064762 26.72693168 -5 24 C-3.35 16.08 -1.7 8.16 0 0 Z " fill="#1F417D" transform="translate(5,0)"/>
<path d="M0 0 C1.36491449 1.15407404 2.72378697 2.31563271 4.0625 3.5 C3.49629699 7.27468671 1.93981019 8.97551893 -0.75390625 11.609375 C-1.51767578 12.36347656 -2.28144531 13.11757813 -3.06835938 13.89453125 C-3.87080078 14.67183594 -4.67324219 15.44914062 -5.5 16.25 C-6.70946289 17.43916016 -6.70946289 17.43916016 -7.94335938 18.65234375 C-9.93483778 20.60847046 -11.93297721 22.55725719 -13.9375 24.5 C-17.4598722 22.78689768 -20.65103807 20.75958924 -23.9375 18.625 C-37.20521506 10.25264685 -52.34959765 7.46397298 -67.828125 10.18359375 C-79.28451543 13.02411854 -88.35936957 17.65847826 -97.9375 24.5 C-104.2075 18.23 -110.4775 11.96 -116.9375 5.5 C-114.46705764 -1.91132708 -103.77905445 -6.34592809 -97.0625 -9.75 C-65.47844098 -25.21890943 -27.68483725 -21.99990583 0 0 Z " fill="#D7DF23" transform="translate(208.9375,19.5)"/>
<path d="M0 0 C1.19015492 3.57046477 0.7557122 4.31620423 -0.58300781 7.72753906 C-0.95379456 8.68573547 -1.3245813 9.64393188 -1.706604 10.63116455 C-2.11795593 11.6655365 -2.52930786 12.69990845 -2.953125 13.765625 C-3.57716217 15.36576447 -3.57716217 15.36576447 -4.21380615 16.99822998 C-5.55045628 20.41898714 -6.90018942 23.83441742 -8.25 27.25 C-9.14536443 29.53743446 -10.03990582 31.82519127 -10.93359375 34.11328125 C-17.86484683 51.81851624 -17.86484683 51.81851624 -21 59 C-21.99 58.505 -21.99 58.505 -23 58 C-23.68603516 55.54736328 -23.68603516 55.54736328 -24.2890625 52.3203125 C-24.50820312 51.16402344 -24.72734375 50.00773437 -24.953125 48.81640625 C-25.17484375 47.59824219 -25.3965625 46.38007812 -25.625 45.125 C-25.85445312 43.91457031 -26.08390625 42.70414063 -26.3203125 41.45703125 C-28 32.4687035 -28 32.4687035 -28 29 C-28.5986084 28.95174072 -29.1972168 28.90348145 -29.81396484 28.85375977 C-36.1904439 28.28524697 -42.36301142 27.25019835 -48.625 25.9375 C-49.53378906 25.75123047 -50.44257812 25.56496094 -51.37890625 25.37304688 C-53.5869003 24.91982704 -55.79385124 24.46210307 -58 24 C-56.54310288 21.08620576 -54.67112345 20.90719886 -51.65405273 19.75341797 C-50.5129454 19.31311249 -49.37183807 18.87280701 -48.19615173 18.41915894 C-46.9420225 17.94335215 -45.68783511 17.46769864 -44.43359375 16.9921875 C-43.15683393 16.5024126 -41.88031177 16.01201772 -40.60401917 15.52102661 C-37.24113289 14.22923865 -33.87507546 12.94591996 -30.50830078 11.66430664 C-27.07455192 10.35549857 -23.64385191 9.03875038 -20.21289062 7.72265625 C-13.47822812 5.14063296 -6.74019763 2.56754449 0 0 Z " fill="#1F417D" transform="translate(175,70)"/>
<path d="M0 0 C3.49996383 2.04164557 5.80555258 4.09089936 7 8 C7.33447374 12.21436918 7.43874817 14.90312958 5.875 18.8125 C2.62091727 22.60892985 -0.59331401 23.82416425 -5.5 24.4375 C-10.28129628 23.83983796 -13.38374574 22.05705087 -16.375 18.25 C-17.67051871 13.58613264 -17.69344047 9.56024106 -15.75 5.1875 C-11.25787471 -0.42765661 -6.91426624 -1.01977022 0 0 Z " fill="#1F417D" transform="translate(194,204)"/>
<path d="M0 0 C3.06765423 1.72196807 5.40321354 3.80642707 7 7 C7.52137294 11.82911 7.73402673 15.74166846 5.25 20 C1.86332689 23.0103761 0.13189161 23.89710076 -4.4375 24.3125 C-9.47919232 23.87024629 -12.75414654 21.819706 -16 18 C-17.3099083 13.6474566 -17.30741676 9.92225029 -15.875 5.625 C-11.81806423 -0.05471008 -6.70178588 -1.29560008 0 0 Z " fill="#1F417D" transform="translate(121,204)"/>
<path d="M0 0 C10.56 0 21.12 0 32 0 C32 1.98 32 3.96 32 6 C21.44 6 10.88 6 0 6 C0 4.02 0 2.04 0 0 Z " fill="#1F417D" transform="translate(138,213)"/>
</svg>
