<svg width="91" height="20" viewBox="0 0 91 20" fill="none" xmlns="http://www.w3.org/2000/svg">
<path d="M46 6.93408C80.5 9 64.5 -2.50001 52.5 1.5C42.5262 4.8246 74 16 74 16L81 12.7171L87.5 9.43418" stroke="#536C93"/>
<path d="M4.98281 5.35608C5.50364 5.38733 5.94114 5.41337 6.29531 5.4342C6.65989 5.44462 6.96198 5.45504 7.20156 5.46545C7.47239 5.47587 7.70156 5.47587 7.88906 5.46545C8.07656 5.45504 8.33177 5.429 8.65469 5.38733C8.92552 5.35608 9.28489 5.3092 9.73281 5.2467C10.1911 5.17379 10.7589 5.08004 11.4359 4.96545C11.1964 5.20504 11.0089 5.42379 10.8734 5.6217C10.7484 5.8092 10.6495 5.97066 10.5766 6.10608C10.4932 6.27275 10.4359 6.41337 10.4047 6.52795C10.3839 6.63212 10.4047 6.89254 10.4672 7.3092C10.5297 7.72587 10.6182 8.22066 10.7328 8.79358C10.8474 9.35608 10.9724 9.96025 11.1078 10.6061C11.2432 11.2415 11.3786 11.8405 11.5141 12.403C11.6495 12.955 11.7693 13.429 11.8734 13.8248C11.988 14.2102 12.0714 14.4394 12.1234 14.5123C12.2797 14.7311 12.3786 14.8769 12.4203 14.9498C12.462 15.0123 12.5349 15.0696 12.6391 15.1217C12.6807 15.1425 12.7484 15.1738 12.8422 15.2155C12.9255 15.2571 13.0349 15.3092 13.1703 15.3717C13.3161 15.4342 13.4984 15.5071 13.7172 15.5905C13.3109 15.6113 12.962 15.6269 12.6703 15.6373C12.3786 15.6373 12.1391 15.6425 11.9516 15.653C11.7328 15.6634 11.5453 15.6738 11.3891 15.6842C11.2328 15.6842 11.0453 15.6946 10.8266 15.7155C10.6391 15.7363 10.3943 15.7571 10.0922 15.778C9.80052 15.7988 9.45677 15.8196 9.06094 15.8405C9.26927 15.6946 9.43594 15.5644 9.56094 15.4498C9.69635 15.3248 9.80052 15.2207 9.87344 15.1373C9.95677 15.0332 10.0141 14.9394 10.0453 14.8561C10.0661 14.7623 10.0818 14.6217 10.0922 14.4342C10.1026 14.2675 10.1026 14.0488 10.0922 13.778C10.0818 13.4967 10.0557 13.1321 10.0141 12.6842L5.90469 13.1061C5.80052 13.2832 5.72239 13.4394 5.67031 13.5748C5.61823 13.6998 5.58177 13.8092 5.56094 13.903C5.52969 14.0175 5.51927 14.1113 5.52969 14.1842C5.55052 14.2675 5.58698 14.3665 5.63906 14.4811C5.69114 14.5852 5.76406 14.7102 5.85781 14.8561C5.96198 14.9915 6.11302 15.153 6.31094 15.3405C6.05052 15.33 5.78489 15.3248 5.51406 15.3248C5.24323 15.3248 4.99323 15.33 4.76406 15.3405C4.49323 15.3509 4.2276 15.3613 3.96719 15.3717C3.70677 15.3821 3.40989 15.3977 3.07656 15.4186C2.79531 15.4394 2.46719 15.4655 2.09219 15.4967C1.70677 15.5175 1.29531 15.5488 0.857811 15.5905C1.12864 15.4655 1.35781 15.3405 1.54531 15.2155C1.73281 15.08 1.88906 14.955 2.01406 14.8405C2.15989 14.7155 2.28489 14.5957 2.38906 14.4811C2.46198 14.3769 2.60781 14.1373 2.82656 13.7623C3.04531 13.3769 3.2901 12.9238 3.56094 12.403C3.84219 11.8821 4.13385 11.3248 4.43594 10.7311C4.74844 10.1373 5.02969 9.58004 5.27969 9.0592C5.52969 8.52795 5.73281 8.06962 5.88906 7.6842C6.04531 7.29879 6.12344 7.04879 6.12344 6.9342C6.1026 6.79879 6.05052 6.64775 5.96719 6.48108C5.89427 6.33525 5.77969 6.16858 5.62344 5.98108C5.4776 5.79358 5.26406 5.58525 4.98281 5.35608ZM9.82656 11.528C9.76406 11.1634 9.70677 10.8509 9.65469 10.5905C9.6026 10.3196 9.56094 10.0957 9.52969 9.91858C9.48802 9.71025 9.45677 9.52795 9.43594 9.3717C9.40469 9.22587 9.36823 9.03837 9.32656 8.8092C9.28489 8.61129 9.23281 8.3665 9.17031 8.07483C9.11823 7.77275 9.05052 7.41337 8.96719 6.9967C8.37344 8.1842 7.90989 9.10608 7.57656 9.76233C7.25364 10.4082 7.01927 10.8821 6.87344 11.1842C6.69635 11.5384 6.59739 11.7467 6.57656 11.8092L9.82656 11.528ZM14.5828 8.44983C14.7807 8.46025 14.9578 8.46545 15.1141 8.46545C15.2807 8.45504 15.4214 8.44462 15.5359 8.4342C15.6714 8.42379 15.7911 8.41337 15.8953 8.40295C16.0516 8.38212 16.213 8.35608 16.3797 8.32483C16.5255 8.304 16.6766 8.27795 16.8328 8.2467C16.9995 8.20504 17.1609 8.15816 17.3172 8.10608C17.2547 8.26233 17.2026 8.39775 17.1609 8.51233C17.1193 8.62691 17.088 8.72587 17.0672 8.8092C17.0359 8.90295 17.0203 8.98108 17.0203 9.04358C17.0099 9.1165 17.0047 9.20504 17.0047 9.3092C16.9943 9.48629 16.9943 9.77275 17.0047 10.1686C17.5464 9.69983 17.9995 9.33525 18.3641 9.07483C18.7391 8.81441 19.0359 8.61129 19.2547 8.46545C19.5151 8.29879 19.7182 8.18941 19.8641 8.13733C20.2495 8.07483 20.588 8.16337 20.8797 8.40295C21.0047 8.50712 21.1245 8.64775 21.2391 8.82483C21.3536 8.9915 21.4526 9.21545 21.5359 9.4967C21.6193 9.77795 21.6818 10.1165 21.7234 10.5123C21.7651 10.8977 21.7703 11.3613 21.7391 11.903C21.5203 11.9238 21.3224 11.9446 21.1453 11.9655C20.9786 11.9863 20.838 12.0019 20.7234 12.0123C20.588 12.0332 20.463 12.0436 20.3484 12.0436L19.9266 12.0905C19.7807 12.1113 19.5984 12.1321 19.3797 12.153C19.1714 12.1634 18.9161 12.1842 18.6141 12.2155C19.0516 11.8613 19.3328 11.554 19.4578 11.2936C19.5932 11.0227 19.6505 10.7988 19.6297 10.6217C19.6089 10.4238 19.5151 10.2519 19.3484 10.1061C19.1505 9.9915 18.937 9.94983 18.7078 9.98108C18.5099 10.0019 18.2807 10.0905 18.0203 10.2467C17.7599 10.403 17.4839 10.6946 17.1922 11.1217C17.213 11.7884 17.2339 12.3405 17.2547 12.778C17.2859 13.2155 17.312 13.5696 17.3328 13.8405C17.3641 14.153 17.3901 14.3977 17.4109 14.5748C17.4422 14.7311 17.5047 14.8977 17.5984 15.0748C17.6714 15.2207 17.7755 15.3821 17.9109 15.5592C18.0464 15.7363 18.2234 15.9134 18.4422 16.0905C17.9839 16.0696 17.6089 16.0696 17.3172 16.0905C17.1401 16.1009 16.9839 16.1113 16.8484 16.1217C16.7026 16.1425 16.5464 16.1634 16.3797 16.1842C16.2339 16.205 16.062 16.2259 15.8641 16.2467C15.6766 16.278 15.4682 16.3092 15.2391 16.3405C15.3224 16.2259 15.3901 16.0905 15.4422 15.9342C15.4943 15.7884 15.5359 15.6477 15.5672 15.5123C15.6089 15.3561 15.6401 15.1946 15.6609 15.028C15.6714 14.8821 15.6766 14.6634 15.6766 14.3717C15.687 14.08 15.6818 13.7519 15.6609 13.3873C15.6505 13.0123 15.6349 12.6269 15.6141 12.2311C15.5932 11.8248 15.5672 11.4446 15.5359 11.0905C15.5047 10.7363 15.4682 10.429 15.4266 10.1686C15.3953 9.89775 15.3589 9.71025 15.3172 9.60608C15.2651 9.48108 15.2026 9.35608 15.1297 9.23108C15.0672 9.1165 14.9891 8.9967 14.8953 8.8717C14.8016 8.73629 14.6974 8.59566 14.5828 8.44983ZM32.7297 10.3873C32.6047 10.3665 32.4484 10.3509 32.2609 10.3405C32.0839 10.33 31.912 10.3248 31.7453 10.3248C31.5578 10.3248 31.3599 10.33 31.1516 10.3405C30.9328 10.3509 30.7141 10.3613 30.4953 10.3717C30.3078 10.3821 30.0943 10.3977 29.8547 10.4186C29.6255 10.429 29.4016 10.4446 29.1828 10.4655C29.2661 10.4238 29.3391 10.3665 29.4016 10.2936C29.4745 10.2207 29.537 10.1477 29.5891 10.0748C29.6411 9.9915 29.688 9.90295 29.7297 9.8092C29.7818 9.65295 29.7766 9.46545 29.7141 9.2467C29.6516 9.01754 29.537 8.8092 29.3703 8.6217C29.2141 8.4342 29.0109 8.28837 28.7609 8.1842C28.5214 8.06962 28.2557 8.04358 27.9641 8.10608C27.6516 8.179 27.3703 8.28837 27.1203 8.4342C26.8807 8.58004 26.6776 8.78316 26.5109 9.04358C26.3547 9.29358 26.2401 9.60608 26.1672 9.98108C26.1047 10.3457 26.0891 10.7832 26.1203 11.2936C26.162 11.929 26.2661 12.4342 26.4328 12.8092C26.5995 13.1842 26.8026 13.4655 27.0422 13.653C27.2818 13.8405 27.5422 13.955 27.8234 13.9967C28.1151 14.028 28.4016 14.028 28.6828 13.9967C28.8807 13.955 29.063 13.8665 29.2297 13.7311C29.3651 13.6165 29.4901 13.4498 29.6047 13.2311C29.7193 13.0123 29.7714 12.7102 29.7609 12.3248L31.6672 12.2467C31.4484 12.8613 31.1828 13.3509 30.8703 13.7155C30.5578 14.0696 30.2557 14.3457 29.9641 14.5436C29.6203 14.7727 29.2766 14.929 28.9328 15.0123C28.5057 15.0852 28.1255 15.1165 27.7922 15.1061C27.4589 15.0852 27.1568 15.0332 26.8859 14.9498C26.6151 14.8665 26.3651 14.7623 26.1359 14.6373C25.9068 14.5123 25.688 14.3769 25.4797 14.2311C25.3443 14.1373 25.1932 13.9811 25.0266 13.7623C24.8599 13.5436 24.7036 13.2832 24.5578 12.9811C24.412 12.6686 24.2922 12.3248 24.1984 11.9498C24.1047 11.5748 24.0682 11.1894 24.0891 10.7936C24.1099 10.3873 24.2036 9.98108 24.3703 9.57483C24.537 9.16858 24.8026 8.77795 25.1672 8.40295C25.7193 7.84045 26.3078 7.47587 26.9328 7.3092C27.5682 7.13212 28.1672 7.08525 28.7297 7.16858C29.2922 7.2415 29.7922 7.40295 30.2297 7.65295C30.6672 7.90295 30.9745 8.17379 31.1516 8.46545C31.3286 8.75712 31.4589 8.98108 31.5422 9.13733C31.6359 9.28316 31.7036 9.39775 31.7453 9.48108C31.7974 9.554 31.8391 9.61129 31.8703 9.65295C31.912 9.6842 31.9693 9.73108 32.0422 9.79358C32.0943 9.84566 32.1568 9.90295 32.2297 9.96545C32.2922 10.0175 32.3651 10.08 32.4484 10.153C32.5318 10.2259 32.6255 10.304 32.7297 10.3873ZM34.0172 4.09045C34.2568 4.13212 34.4755 4.16337 34.6734 4.1842C34.8714 4.19462 35.038 4.20504 35.1734 4.21545C35.3297 4.22587 35.4651 4.23108 35.5797 4.23108C35.7359 4.22066 35.9182 4.20504 36.1266 4.1842C36.3036 4.16337 36.5172 4.13733 36.7672 4.10608C37.0276 4.07483 37.3245 4.03316 37.6578 3.98108C37.5016 4.06441 37.3714 4.14775 37.2672 4.23108C37.163 4.304 37.0797 4.38212 37.0172 4.46545C36.9443 4.5592 36.887 4.64775 36.8453 4.73108C36.7932 4.8665 36.7359 5.14775 36.6734 5.57483C36.6109 5.93941 36.5328 6.48108 36.4391 7.19983C36.3557 7.91858 36.2464 8.89254 36.1109 10.1217C36.4859 9.7467 36.8401 9.46545 37.1734 9.27795C37.5172 9.08004 37.8193 8.93941 38.0797 8.85608C38.3818 8.76233 38.663 8.71545 38.9234 8.71545C39.2464 8.7467 39.5745 8.85087 39.9078 9.02795C40.2516 9.19462 40.5693 9.39254 40.8609 9.6217C41.163 9.85087 41.4234 10.0957 41.6422 10.3561C41.8714 10.6165 42.0328 10.8457 42.1266 11.0436C42.1891 11.179 42.2203 11.3561 42.2203 11.5748C42.2203 11.7832 42.1995 12.0123 42.1578 12.2623C42.1161 12.5123 42.0589 12.7675 41.9859 13.028C41.913 13.2884 41.8401 13.5332 41.7672 13.7623C41.7047 13.9915 41.6474 14.1946 41.5953 14.3717C41.5432 14.5384 41.512 14.6582 41.5016 14.7311C41.4807 14.8873 41.4911 15.0384 41.5328 15.1842C41.5641 15.3092 41.6266 15.4446 41.7203 15.5905C41.8141 15.7259 41.9547 15.8405 42.1422 15.9342C41.9964 15.9134 41.8401 15.8977 41.6734 15.8873C41.5172 15.8665 41.3661 15.8509 41.2203 15.8405C41.0536 15.83 40.887 15.8248 40.7203 15.8248H40.1578C39.9807 15.8248 39.7776 15.83 39.5484 15.8405C39.3193 15.8405 39.0693 15.8457 38.7984 15.8561C38.9443 15.804 39.0693 15.7363 39.1734 15.653C39.2776 15.5592 39.3661 15.4707 39.4391 15.3873C39.5224 15.2936 39.5953 15.1946 39.6578 15.0905C39.6995 15.0071 39.7516 14.8509 39.8141 14.6217C39.8766 14.3821 39.9339 14.1113 39.9859 13.8092C40.038 13.4967 40.0745 13.1686 40.0953 12.8248C40.1266 12.4811 40.1318 12.153 40.1109 11.8405C40.1005 11.5175 40.0536 11.2311 39.9703 10.9811C39.8974 10.7311 39.7828 10.5488 39.6266 10.4342C39.1578 10.08 38.7307 9.90816 38.3453 9.91858C37.9703 9.91858 37.6109 10.0696 37.2672 10.3717C37.1422 10.4863 37.0224 10.6009 36.9078 10.7155C36.8036 10.8196 36.6891 10.9446 36.5641 11.0905C36.4391 11.2259 36.3245 11.3665 36.2203 11.5123C36.2203 11.6686 36.2255 11.8405 36.2359 12.028C36.2464 12.2155 36.2568 12.3977 36.2672 12.5748C36.2776 12.7727 36.2932 12.9707 36.3141 13.1686C36.3349 13.4707 36.3661 13.7675 36.4078 14.0592C36.4391 14.3092 36.4807 14.5852 36.5328 14.8873C36.5849 15.179 36.6526 15.4446 36.7359 15.6842C36.6005 15.6634 36.4599 15.6582 36.3141 15.6686C36.1682 15.6686 36.0276 15.6686 35.8922 15.6686C35.7359 15.679 35.5849 15.6842 35.4391 15.6842C35.3036 15.6946 35.163 15.7102 35.0172 15.7311C34.8922 15.7519 34.7568 15.7727 34.6109 15.7936C34.4651 15.804 34.3245 15.8248 34.1891 15.8561C34.3141 15.6165 34.4182 15.3821 34.5016 15.153C34.5849 14.9134 34.6526 14.705 34.7047 14.528C34.7672 14.3196 34.8193 14.1165 34.8609 13.9186C34.8922 13.7623 34.913 13.4655 34.9234 13.028C34.9443 12.58 34.9599 12.0696 34.9703 11.4967C34.9807 10.9134 34.9859 10.2988 34.9859 9.65295C34.9859 9.00712 34.9807 8.39254 34.9703 7.8092C34.9599 7.22587 34.9391 6.71545 34.9078 6.27795C34.887 5.84045 34.8609 5.53837 34.8297 5.3717C34.788 5.20504 34.7307 5.03837 34.6578 4.8717C34.5953 4.72587 34.512 4.58525 34.4078 4.44983C34.3036 4.304 34.1734 4.1842 34.0172 4.09045Z" fill="#536C93"/>
<path d="M44.6016 8.94983L47.4766 8.98108C47.3099 9.6165 47.1849 10.1582 47.1016 10.6061C47.0286 11.054 46.9818 11.429 46.9609 11.7311C46.9193 12.0748 46.9089 12.3665 46.9297 12.6061C46.9609 12.8248 47.013 13.0592 47.0859 13.3092C47.1484 13.5175 47.2422 13.7571 47.3672 14.028C47.4922 14.2988 47.6589 14.5696 47.8672 14.8405C47.7422 14.7988 47.6068 14.7675 47.4609 14.7467C47.3151 14.7259 47.1797 14.7102 47.0547 14.6998C46.9089 14.6894 46.763 14.6894 46.6172 14.6998C46.4714 14.7102 46.3099 14.7259 46.1328 14.7467C45.987 14.7675 45.8099 14.7936 45.6016 14.8248C45.3932 14.8561 45.1745 14.8977 44.9453 14.9498C45.1016 14.4811 45.2214 14.0748 45.3047 13.7311C45.3984 13.3873 45.4661 13.1009 45.5078 12.8717C45.5495 12.6009 45.5755 12.3821 45.5859 12.2155C45.5859 12.0071 45.5859 11.7727 45.5859 11.5123C45.5859 11.2415 45.5859 10.9811 45.5859 10.7311C45.5859 10.4811 45.5807 10.2623 45.5703 10.0748C45.5599 9.87691 45.5391 9.75191 45.5078 9.69983L45.3516 9.54358C45.2891 9.4915 45.1953 9.41858 45.0703 9.32483C44.9557 9.22066 44.7995 9.09566 44.6016 8.94983ZM45.7109 6.54358C45.9297 6.429 46.1484 6.39775 46.3672 6.44983C46.5964 6.50191 46.7734 6.60087 46.8984 6.7467C47.0234 6.89254 47.0651 7.06441 47.0234 7.26233C46.9922 7.46025 46.8255 7.65295 46.5234 7.84045C46.2214 8.01754 45.9557 8.08004 45.7266 8.02795C45.4974 7.97587 45.3359 7.8665 45.2422 7.69983C45.1484 7.53316 45.1328 7.34045 45.1953 7.1217C45.2578 6.89254 45.4297 6.69983 45.7109 6.54358ZM49.5609 8.65295C49.8943 8.60087 50.1651 8.5592 50.3734 8.52795C50.5922 8.48629 50.7693 8.45504 50.9047 8.4342C51.0609 8.40295 51.1807 8.37691 51.2641 8.35608C51.3474 8.33525 51.4672 8.304 51.6234 8.26233C51.7589 8.22066 51.9359 8.17379 52.1547 8.1217C52.3734 8.0592 52.6495 7.97587 52.9828 7.8717C52.8995 7.97587 52.8318 8.06962 52.7797 8.15295C52.738 8.22587 52.6964 8.28837 52.6547 8.34045C52.613 8.40295 52.5766 8.46025 52.5453 8.51233C52.5141 8.56441 52.4828 8.64254 52.4516 8.7467C52.4307 8.83004 52.4047 8.94983 52.3734 9.10608C52.3422 9.25191 52.3161 9.44462 52.2953 9.6842C52.8578 9.33004 53.3734 9.06441 53.8422 8.88733C54.3214 8.71025 54.738 8.58525 55.0922 8.51233C55.5089 8.429 55.8839 8.39775 56.2172 8.41858C56.6339 8.44983 57.0193 8.54358 57.3734 8.69983C57.738 8.84566 58.0661 9.02275 58.3578 9.23108C58.6495 9.43941 58.9047 9.66858 59.1234 9.91858C59.3422 10.1686 59.5141 10.4186 59.6391 10.6686C59.7224 10.8352 59.7745 11.0748 59.7953 11.3873C59.8266 11.6998 59.7953 12.0332 59.7016 12.3873C59.6078 12.7415 59.4411 13.0905 59.2016 13.4342C58.9724 13.7675 58.6443 14.0332 58.2172 14.2311C57.4776 14.5644 56.7432 14.7519 56.0141 14.7936C55.7016 14.8144 55.3786 14.804 55.0453 14.7623C54.7224 14.7207 54.3943 14.6321 54.0609 14.4967C53.738 14.3613 53.4255 14.1686 53.1234 13.9186C52.8214 13.6582 52.5453 13.3248 52.2953 12.9186C52.212 13.4498 52.1495 13.9134 52.1078 14.3092C52.0766 14.6946 52.0557 15.0175 52.0453 15.278C52.0349 15.58 52.0349 15.8352 52.0453 16.0436C52.0661 16.2519 52.1078 16.4759 52.1703 16.7155C52.2224 16.9238 52.2953 17.1634 52.3891 17.4342C52.4932 17.7155 52.6234 18.0071 52.7797 18.3092C52.7172 18.2884 52.6286 18.2727 52.5141 18.2623C52.4099 18.2623 52.3005 18.2727 52.1859 18.2936C52.0609 18.3144 51.9203 18.3352 51.7641 18.3561C51.6182 18.3873 51.4568 18.4238 51.2797 18.4655C51.1339 18.4967 50.962 18.5332 50.7641 18.5748C50.5766 18.6269 50.3839 18.6842 50.1859 18.7467C50.3005 18.6113 50.3891 18.455 50.4516 18.278C50.5245 18.1113 50.5818 17.955 50.6234 17.8092C50.6651 17.6321 50.7016 17.455 50.7328 17.278C50.7432 17.1217 50.7589 16.8248 50.7797 16.3873C50.8109 15.9602 50.837 15.4655 50.8578 14.903C50.8786 14.33 50.8943 13.7311 50.9047 13.1061C50.9255 12.4811 50.9359 11.903 50.9359 11.3717C50.9464 10.83 50.9464 10.3717 50.9359 9.9967C50.9255 9.6217 50.9047 9.40295 50.8734 9.34045C50.8318 9.26754 50.7536 9.18941 50.6391 9.10608C50.5453 9.03316 50.4099 8.96025 50.2328 8.88733C50.0661 8.81441 49.8422 8.73629 49.5609 8.65295ZM53.2797 11.4967C53.2068 11.7363 53.1911 11.9707 53.2328 12.1998C53.2745 12.429 53.3786 12.6425 53.5453 12.8405C53.7224 13.0384 53.9672 13.2155 54.2797 13.3717C54.6026 13.5175 55.0036 13.6269 55.4828 13.6998C55.962 13.7727 56.3266 13.7623 56.5766 13.6686C56.8266 13.5748 57.0089 13.429 57.1234 13.2311C57.2484 13.0227 57.3318 12.7832 57.3734 12.5123C57.4151 12.2311 57.4672 11.9394 57.5297 11.6373C57.5922 11.3457 57.5818 11.0488 57.4984 10.7467C57.4151 10.4342 57.2953 10.153 57.1391 9.90295C56.9932 9.65295 56.8266 9.44983 56.6391 9.29358C56.462 9.12691 56.3057 9.04358 56.1703 9.04358C55.8474 9.04358 55.5297 9.12691 55.2172 9.29358C54.9047 9.46025 54.6182 9.66858 54.3578 9.91858C54.0974 10.1686 53.8682 10.4394 53.6703 10.7311C53.4828 11.0123 53.3526 11.2675 53.2797 11.4967ZM63.2078 9.60608C63.2599 9.54358 63.2911 9.429 63.3016 9.26233C63.3224 9.08525 63.3641 8.88733 63.4266 8.66858C63.4995 8.44983 63.6193 8.22066 63.7859 7.98108C63.9526 7.7415 64.2234 7.51754 64.5984 7.3092C64.963 7.10087 65.3172 6.97587 65.6609 6.9342C66.0047 6.89254 66.3328 6.90816 66.6453 6.98108C66.9578 7.054 67.2495 7.16858 67.5203 7.32483C67.8016 7.48108 68.0568 7.65295 68.2859 7.84045C68.4422 7.96545 68.5672 8.14775 68.6609 8.38733C68.7547 8.6165 68.8276 8.87691 68.8797 9.16858C68.9318 9.46025 68.9682 9.76754 68.9891 10.0905C69.0203 10.403 69.0411 10.7102 69.0516 11.0123C69.062 11.304 69.0672 11.5748 69.0672 11.8248C69.0776 12.0644 69.0984 12.2623 69.1297 12.4186C69.1714 12.6477 69.2443 12.8457 69.3484 13.0123C69.4526 13.1686 69.5672 13.304 69.6922 13.4186C69.8172 13.5227 69.9422 13.6061 70.0672 13.6686C70.1922 13.7311 70.3016 13.778 70.3953 13.8092C70.4578 13.8405 70.5151 13.8613 70.5672 13.8717C70.6714 13.9134 70.7443 13.9134 70.7859 13.8717C70.7234 14.0175 70.6661 14.1425 70.6141 14.2467C70.562 14.3509 70.5203 14.4394 70.4891 14.5123C70.4474 14.5957 70.4109 14.6634 70.3797 14.7155C70.3484 14.778 70.312 14.8352 70.2703 14.8873C70.2391 14.9394 70.1974 14.9967 70.1453 15.0592C70.0932 15.1217 70.0411 15.1894 69.9891 15.2623C69.8536 15.2102 69.7234 15.1477 69.5984 15.0748C69.4839 15.0019 69.3797 14.9342 69.2859 14.8717C69.1714 14.7988 69.0672 14.7259 68.9734 14.653C68.8797 14.58 68.7911 14.4967 68.7078 14.403C68.6349 14.3196 68.5568 14.2311 68.4734 14.1373C68.4005 14.0436 68.338 13.9394 68.2859 13.8248C68.2234 13.9602 68.0724 14.153 67.8328 14.403C67.6036 14.653 67.3016 14.8821 66.9266 15.0905C66.5516 15.2884 66.1141 15.429 65.6141 15.5123C65.1245 15.5957 64.5828 15.5384 63.9891 15.3405C63.7286 15.2571 63.4839 15.1373 63.2547 14.9811C63.0255 14.8144 62.8276 14.6165 62.6609 14.3873C62.5047 14.1582 62.3901 13.8977 62.3172 13.6061C62.2547 13.304 62.2599 12.9707 62.3328 12.6061C62.4057 12.2415 62.5359 11.9342 62.7234 11.6842C62.9109 11.4342 63.1349 11.2311 63.3953 11.0748C63.6557 10.9186 63.9474 10.7988 64.2703 10.7155C64.5932 10.6321 64.9266 10.5748 65.2703 10.5436C65.5411 10.5332 65.812 10.5488 66.0828 10.5905C66.312 10.6321 66.5516 10.7102 66.8016 10.8248C67.0516 10.929 67.2651 11.0905 67.4422 11.3092C67.4318 10.7571 67.4109 10.3196 67.3797 9.9967C67.3589 9.66337 67.338 9.40816 67.3172 9.23108C67.2755 9.02275 67.2391 8.87691 67.2078 8.79358C67.1557 8.72066 67.0984 8.63733 67.0359 8.54358C66.9839 8.44983 66.9161 8.3665 66.8328 8.29358C66.7495 8.21025 66.6453 8.14254 66.5203 8.09045C66.3953 8.03837 66.2495 8.01754 66.0828 8.02795C65.9057 8.03837 65.7651 8.08525 65.6609 8.16858C65.5568 8.25191 65.4734 8.35087 65.4109 8.46545C65.3589 8.56962 65.3276 8.6842 65.3172 8.8092C65.3068 8.9342 65.312 9.04358 65.3328 9.13733C65.3536 9.19983 65.3849 9.26754 65.4266 9.34045C65.4682 9.40295 65.5255 9.47066 65.5984 9.54358C65.6714 9.6165 65.7703 9.679 65.8953 9.73108C65.6557 9.76233 65.4422 9.78837 65.2547 9.8092C65.0672 9.81962 64.9057 9.83525 64.7703 9.85608C64.6141 9.87691 64.4786 9.89254 64.3641 9.90295C64.2495 9.91337 64.1141 9.9342 63.9578 9.96545C63.8224 9.98629 63.6557 10.0123 63.4578 10.0436C63.2599 10.0748 63.0307 10.1165 62.7703 10.1686C62.8328 10.0957 62.8901 10.028 62.9422 9.96545C62.9943 9.89254 63.0411 9.83004 63.0828 9.77795C63.1245 9.71545 63.1661 9.65816 63.2078 9.60608ZM65.5516 11.4655C65.3641 11.4759 65.1766 11.5227 64.9891 11.6061C64.8016 11.679 64.6349 11.7884 64.4891 11.9342C64.3432 12.0696 64.2182 12.2311 64.1141 12.4186C64.0203 12.5957 63.9734 12.7936 63.9734 13.0123C63.9734 13.2311 64.0255 13.4238 64.1297 13.5905C64.2443 13.7467 64.3901 13.8769 64.5672 13.9811C64.7547 14.0852 64.9526 14.1477 65.1609 14.1686C65.3797 14.1894 65.5932 14.1686 65.8016 14.1061C65.9995 14.0332 66.187 13.9186 66.3641 13.7623C66.5411 13.5957 66.6922 13.4186 66.8172 13.2311C66.9422 13.0332 67.0307 12.8405 67.0828 12.653C67.1349 12.455 67.1401 12.2936 67.0984 12.1686C67.0151 11.8977 66.8276 11.7102 66.5359 11.6061C66.2443 11.4915 65.9161 11.4446 65.5516 11.4655ZM72.0734 8.44983C72.2713 8.46025 72.4484 8.46545 72.6047 8.46545C72.7713 8.45504 72.912 8.44462 73.0266 8.4342C73.162 8.42379 73.2818 8.41337 73.3859 8.40295C73.5422 8.38212 73.7036 8.35608 73.8703 8.32483C74.0161 8.304 74.1672 8.27795 74.3234 8.2467C74.4901 8.20504 74.6516 8.15816 74.8078 8.10608C74.7453 8.26233 74.6932 8.39775 74.6516 8.51233C74.6099 8.62691 74.5786 8.72587 74.5578 8.8092C74.5266 8.90295 74.5109 8.98108 74.5109 9.04358C74.5005 9.1165 74.4953 9.20504 74.4953 9.3092C74.4849 9.48629 74.4849 9.77275 74.4953 10.1686C75.037 9.69983 75.4901 9.33525 75.8547 9.07483C76.2297 8.81441 76.5266 8.61129 76.7453 8.46545C77.0057 8.29879 77.2088 8.18941 77.3547 8.13733C77.7401 8.07483 78.0786 8.16337 78.3703 8.40295C78.4953 8.50712 78.6151 8.64775 78.7297 8.82483C78.8443 8.9915 78.9432 9.21545 79.0266 9.4967C79.1099 9.77795 79.1724 10.1165 79.2141 10.5123C79.2557 10.8977 79.2609 11.3613 79.2297 11.903C79.0109 11.9238 78.813 11.9446 78.6359 11.9655C78.4693 11.9863 78.3286 12.0019 78.2141 12.0123C78.0786 12.0332 77.9536 12.0436 77.8391 12.0436L77.4172 12.0905C77.2713 12.1113 77.0891 12.1321 76.8703 12.153C76.662 12.1634 76.4068 12.1842 76.1047 12.2155C76.5422 11.8613 76.8234 11.554 76.9484 11.2936C77.0838 11.0227 77.1411 10.7988 77.1203 10.6217C77.0995 10.4238 77.0057 10.2519 76.8391 10.1061C76.6411 9.9915 76.4276 9.94983 76.1984 9.98108C76.0005 10.0019 75.7713 10.0905 75.5109 10.2467C75.2505 10.403 74.9745 10.6946 74.6828 11.1217C74.7036 11.7884 74.7245 12.3405 74.7453 12.778C74.7766 13.2155 74.8026 13.5696 74.8234 13.8405C74.8547 14.153 74.8807 14.3977 74.9016 14.5748C74.9328 14.7311 74.9953 14.8977 75.0891 15.0748C75.162 15.2207 75.2661 15.3821 75.4016 15.5592C75.537 15.7363 75.7141 15.9134 75.9328 16.0905C75.4745 16.0696 75.0995 16.0696 74.8078 16.0905C74.6307 16.1009 74.4745 16.1113 74.3391 16.1217C74.1932 16.1425 74.037 16.1634 73.8703 16.1842C73.7245 16.205 73.5526 16.2259 73.3547 16.2467C73.1672 16.278 72.9588 16.3092 72.7297 16.3405C72.813 16.2259 72.8807 16.0905 72.9328 15.9342C72.9849 15.7884 73.0266 15.6477 73.0578 15.5123C73.0995 15.3561 73.1307 15.1946 73.1516 15.028C73.162 14.8821 73.1672 14.6634 73.1672 14.3717C73.1776 14.08 73.1724 13.7519 73.1516 13.3873C73.1411 13.0123 73.1255 12.6269 73.1047 12.2311C73.0838 11.8248 73.0578 11.4446 73.0266 11.0905C72.9953 10.7363 72.9588 10.429 72.9172 10.1686C72.8859 9.89775 72.8495 9.71025 72.8078 9.60608C72.7557 9.48108 72.6932 9.35608 72.6203 9.23108C72.5578 9.1165 72.4797 8.9967 72.3859 8.8717C72.2922 8.73629 72.188 8.59566 72.0734 8.44983ZM81.3297 4.66858C81.4443 4.72066 81.5797 4.75712 81.7359 4.77795C81.9026 4.79879 82.0589 4.8092 82.2047 4.8092C82.3818 4.8092 82.5641 4.804 82.7516 4.79358C82.9391 4.78316 83.1682 4.76233 83.4391 4.73108C83.6578 4.71025 83.9286 4.6842 84.2516 4.65295C84.5745 4.6217 84.9339 4.58004 85.3297 4.52795C85.1839 4.60087 85.0589 4.679 84.9547 4.76233C84.8505 4.84566 84.762 4.929 84.6891 5.01233C84.6057 5.10608 84.538 5.19983 84.4859 5.29358C84.413 5.41858 84.3141 5.63733 84.1891 5.94983C84.0745 6.25191 83.9547 6.59045 83.8297 6.96545C83.7151 7.34045 83.6109 7.72066 83.5172 8.10608C83.4339 8.4915 83.387 8.81962 83.3766 9.09045C83.3661 9.31962 83.3557 9.58004 83.3453 9.8717C83.3349 10.1217 83.3245 10.429 83.3141 10.7936C83.3036 11.1582 83.2932 11.5748 83.2828 12.0436C84.0328 11.5019 84.6109 11.0696 85.0172 10.7467C85.4234 10.4134 85.7203 10.1582 85.9078 9.98108C86.1266 9.78316 86.2568 9.64254 86.2984 9.5592C86.288 9.4967 86.262 9.429 86.2203 9.35608C86.1682 9.29358 86.0953 9.22066 86.0016 9.13733C85.9078 9.054 85.7672 8.96025 85.5797 8.85608C85.8505 8.88733 86.0849 8.90816 86.2828 8.91858C86.4911 8.929 86.6682 8.93941 86.8141 8.94983C86.9807 8.96025 87.1266 8.96025 87.2516 8.94983C87.387 8.94983 87.5536 8.94462 87.7516 8.9342C88.0953 8.92379 88.6266 8.90816 89.3453 8.88733C88.6474 9.25191 88.0953 9.56441 87.6891 9.82483C87.4599 9.97066 87.2568 10.1061 87.0797 10.2311C86.9026 10.3665 86.7203 10.5071 86.5328 10.653C86.3661 10.778 86.1734 10.9238 85.9547 11.0905C85.7464 11.2571 85.538 11.4342 85.3297 11.6217C85.6943 12.2155 86.012 12.705 86.2828 13.0905C86.5641 13.4759 86.7984 13.7884 86.9859 14.028C87.2047 14.3092 87.3974 14.5332 87.5641 14.6998C87.7307 14.8561 87.9495 15.0332 88.2203 15.2311C88.4495 15.4082 88.7464 15.6165 89.1109 15.8561C89.4859 16.0852 89.9391 16.3509 90.4703 16.653C90.1995 16.6009 89.9391 16.5644 89.6891 16.5436C89.4391 16.5332 89.2255 16.5332 89.0484 16.5436C88.8297 16.554 88.6318 16.5748 88.4547 16.6061C88.2672 16.6477 88.0589 16.6998 87.8297 16.7623C87.6318 16.8144 87.3974 16.8821 87.1266 16.9655C86.8661 17.0592 86.5797 17.179 86.2672 17.3248C86.4651 17.179 86.6109 17.0384 86.7047 16.903C86.8089 16.778 86.8818 16.6738 86.9234 16.5905C86.9651 16.4863 86.9807 16.3977 86.9703 16.3248C86.9182 16.2207 86.7984 16.0071 86.6109 15.6842C86.4339 15.4134 86.1734 15.0175 85.8297 14.4967C85.4859 13.9759 84.9964 13.2675 84.3609 12.3717C84.3297 12.3821 84.2776 12.4134 84.2047 12.4655C84.1422 12.5175 84.0484 12.5905 83.9234 12.6842C83.7984 12.7675 83.6318 12.8925 83.4234 13.0592L83.8453 15.7936C83.7516 15.8352 83.6474 15.8717 83.5328 15.903C83.4286 15.9342 83.3297 15.9602 83.2359 15.9811C83.1214 16.0123 83.0068 16.0332 82.8922 16.0436C82.7776 16.054 82.6422 16.0748 82.4859 16.1061C82.3505 16.1269 82.1891 16.153 82.0016 16.1842C81.8141 16.2259 81.6005 16.2727 81.3609 16.3248C81.4964 16.2311 81.6057 16.1217 81.6891 15.9967C81.7724 15.8821 81.8401 15.7727 81.8922 15.6686C81.9443 15.554 81.9911 15.4342 82.0328 15.3092C82.0536 15.205 82.0745 14.9342 82.0953 14.4967C82.1266 14.0592 82.1526 13.5384 82.1734 12.9342C82.1943 12.3196 82.2099 11.6634 82.2203 10.9655C82.2411 10.2675 82.2516 9.61129 82.2516 8.9967C82.2516 8.3717 82.2464 7.83004 82.2359 7.3717C82.2255 6.90295 82.2047 6.60087 82.1734 6.46545C82.1214 6.29879 82.0589 6.1217 81.9859 5.9342C81.9234 5.76754 81.8349 5.58004 81.7203 5.3717C81.6161 5.15295 81.4859 4.91858 81.3297 4.66858Z" fill="#1E1E1E"/>
</svg>
